<?xml version="1.0" encoding="iso-8859-1"?>
<svg xmlns="http://www.w3.org/2000/svg" xmlns:xlink="http://www.w3.org/1999/xlink" version="1.1" viewBox="0 0 470 470" enable-background="new 0 0 470 470" width="512px" height="512px">
  <g>
    <path d="m235,137.5c-53.762,0-97.5,43.738-97.5,97.5s43.738,97.5 97.5,97.5 97.5-43.738 97.5-97.5-43.738-97.5-97.5-97.5zm82.144,90h-29.79c-1.077-27.491-8.037-51.476-18.617-67.758 26.542,11.946 45.667,37.515 48.407,67.758zm-89.644-73.111v73.111h-29.832c0.853-20.043 5.111-38.567 12.22-52.786 5.078-10.155 11.241-17.173 17.612-20.325zm0,88.111v73.111c-6.371-3.152-12.534-10.169-17.612-20.325-7.109-14.218-11.367-32.743-12.22-52.786h29.832zm15,73.111v-73.111h29.832c-0.853,20.043-5.111,38.567-12.22,52.786-5.078,10.155-11.241,17.173-17.612,20.325zm0-88.111v-73.111c6.371,3.152 12.534,10.169 17.612,20.325 7.109,14.218 11.367,32.743 12.22,52.786h-29.832zm-41.236-67.758c-10.581,16.282-17.541,40.266-18.617,67.758h-29.79c2.739-30.243 21.864-55.812 48.407-67.758zm-48.408,82.758h29.79c1.077,27.491 8.037,51.476 18.617,67.758-26.542-11.946-45.667-37.515-48.407-67.758zm115.88,67.758c10.581-16.282 17.541-40.266 18.617-67.758h29.79c-2.739,30.243-21.864,55.812-48.407,67.758z" fill="#778990"/>
    <path d="m467.463,80.777c-1.689-1.492-3.962-2.144-6.186-1.776-12.858,2.125-25.95,3.203-38.913,3.204-67.69,0.002-132.313-28.377-181.963-79.908-1.414-1.468-3.363-2.297-5.401-2.297s-3.987,0.829-5.401,2.296c-49.646,51.527-114.269,79.906-181.964,79.909-12.958,0-26.049-1.078-38.912-3.204-2.223-0.367-4.496,0.285-6.186,1.776s-2.62,3.665-2.531,5.917c2.83,72.058 16.739,136.998 41.34,193.018 19.756,44.988 46.405,84.343 79.207,116.971 56.036,55.741 110.029,72.323 112.3,73.002 0.701,0.209 1.424,0.314 2.147,0.314s1.447-0.104 2.147-0.314c2.271-0.679 56.264-17.261 112.3-73.002 32.801-32.628 59.45-71.983 79.207-116.971 24.602-56.02 38.51-120.96 41.34-193.018 0.089-2.252-0.841-4.425-2.531-5.917zm-127.995,304.675c-47.298,47.286-94.041,65.491-104.475,69.146-10.384-3.617-56.62-21.556-103.861-68.548-48.593-48.338-107.599-137.824-115.721-290.91 10.705,1.372 21.508,2.065 32.225,2.065 35.988-0.001 71.272-7.584 104.873-22.538 30.469-13.561 58.187-32.549 82.492-56.5 24.307,23.954 52.024,42.944 82.491,56.503 33.6,14.954 68.884,22.536 104.874,22.535 10.72,0 21.522-0.694 32.224-2.065-8.094,152.641-66.788,241.99-115.122,290.312z" fill="#778990"/>
    <path d="m239.741,55.985c-2.76-2.251-6.722-2.251-9.481,0-52.202,42.579-114.258,65.471-179.46,66.202-2.124,0.024-4.137,0.946-5.542,2.539s-2.068,3.706-1.826,5.816c5.48,47.741 16.686,91.563 33.307,130.251 17.239,40.128 40.436,75.263 68.947,104.428 34.44,35.23 68.833,53.485 86.27,61.23 0.969,0.431 2.007,0.646 3.045,0.646s2.076-0.215 3.045-0.646c14.838-6.591 44.345-21.918 75.243-50.511 3.041-2.813 3.224-7.559 0.411-10.599-2.813-3.041-7.558-3.224-10.599-0.411-27.316,25.278-53.36,39.57-68.102,46.428-17.206-7.997-47.805-25.134-78.587-56.623-27.215-27.84-49.385-61.439-65.892-99.864-15.098-35.144-25.578-74.771-31.189-117.896 63.61-2.475 124.061-25.029 175.669-65.571 51.612,40.545 112.062,63.101 175.669,65.573-5.611,43.125-16.091,82.752-31.189,117.896-14.418,33.563-33.23,63.555-55.914,89.145-2.748,3.1-2.462,7.84 0.637,10.587 3.1,2.748 7.84,2.462 10.587-0.637 23.748-26.79 43.42-58.138 58.472-93.174 16.621-38.688 27.826-82.511 33.307-130.251 0.242-2.11-0.421-4.223-1.826-5.816-1.405-1.593-3.418-2.516-5.542-2.539-65.198-0.727-127.254-23.619-179.46-66.203z" fill="#778990"/>
  </g>
</svg>
