<?xml version="1.0" encoding="iso-8859-1"?>
<svg xmlns="http://www.w3.org/2000/svg" xmlns:xlink="http://www.w3.org/1999/xlink" version="1.1" viewBox="0 0 470 470" enable-background="new 0 0 470 470" width="512px" height="512px">
  <g>
    <path d="m462.5,22.5h-455c-4.142,0-7.5,3.357-7.5,7.5v410c0,4.143 3.358,7.5 7.5,7.5h455c4.142,0 7.5-3.357 7.5-7.5v-80c0-4.143-3.358-7.5-7.5-7.5s-7.5,3.357-7.5,7.5v72.5h-440v-335h440v232.5c0,4.143 3.358,7.5 7.5,7.5s7.5-3.357 7.5-7.5v-300c0-4.143-3.358-7.5-7.5-7.5zm-447.5,15h277.5v45h-277.5v-45zm292.5,45v-45h147.5v45h-147.5z" fill="#778990"/>
    <path d="m381.5,52c-4.411,0-8,3.589-8,8s3.589,8 8,8 8-3.589 8-8-3.589-8-8-8z" fill="#778990"/>
    <path d="m340.5,52c-4.411,0-8,3.589-8,8s3.589,8 8,8 8-3.589 8-8-3.589-8-8-8z" fill="#778990"/>
    <path d="m422.5,52c-4.411,0-8,3.589-8,8s3.589,8 8,8 8-3.589 8-8-3.589-8-8-8z" fill="#778990"/>
    <path d="M314.42,331.008c-4.142,0-7.5,3.357-7.5,7.5V393c0,4.143,3.358,7.5,7.5,7.5H415.5c4.142,0,7.5-3.357,7.5-7.5v-54.492   c0-4.143-3.358-7.5-7.5-7.5h-45.447v-44.648c0-4.143-3.358-7.5-7.5-7.5H265c-4.142,0-7.5,3.357-7.5,7.5s3.358,7.5,7.5,7.5h90.053   v37.148H314.42z M408,385.5h-86.08v-39.492H408V385.5z" fill="#778990"/>
    <path d="m308.173,170.605c0-4.143-3.358-7.5-7.5-7.5h-131.346c-4.142,0-7.5,3.357-7.5,7.5s3.358,7.5 7.5,7.5h131.347c4.141,0 7.499-3.357 7.499-7.5z" fill="#778990"/>
    <path d="m280.414,200.605c0-4.143-3.358-7.5-7.5-7.5h-75.827c-4.142,0-7.5,3.357-7.5,7.5s3.358,7.5 7.5,7.5h75.827c4.142,0 7.5-3.357 7.5-7.5z" fill="#778990"/>
    <path d="M184.46,331.008c-4.142,0-7.5,3.357-7.5,7.5V393c0,4.143,3.358,7.5,7.5,7.5h101.08c4.142,0,7.5-3.357,7.5-7.5v-54.492   c0-4.143-3.358-7.5-7.5-7.5H242.5v-89.297h91.173c4.142,0,7.5-3.357,7.5-7.5V137c0-4.143-3.358-7.5-7.5-7.5H136.327   c-4.142,0-7.5,3.357-7.5,7.5v97.211c0,4.143,3.358,7.5,7.5,7.5H227.5v37.148H107.447c-4.142,0-7.5,3.357-7.5,7.5v44.648H54.5   c-4.142,0-7.5,3.357-7.5,7.5V393c0,4.143,3.358,7.5,7.5,7.5h101.08c4.142,0,7.5-3.357,7.5-7.5v-54.492c0-4.143-3.358-7.5-7.5-7.5   h-40.633v-37.148H227.5v37.148H184.46z M143.827,144.5h182.347v82.211H143.827V144.5z M148.08,385.5H62v-39.492h86.08V385.5z    M278.04,385.5h-86.08v-39.492h86.08V385.5z" fill="#778990"/>
  </g>
</svg>
